<svg xmlns="http://www.w3.org/2000/svg" xmlns:xlink="http://www.w3.org/1999/xlink">
 
<symbol id="msexcel" viewBox="0 0 512 512" style="enable-background:new 0 0 512 512;" xml:space="preserve">
<g>
	<path style="fill:#4CAF50;" d="M294.656,13.014c-2.531-2.056-5.863-2.842-9.045-2.133l-277.333,64
		C3.397,76.003-0.047,80.369,0,85.377v362.667c0.002,5.263,3.843,9.739,9.045,10.539l277.333,42.667
		c5.823,0.895,11.269-3.099,12.164-8.921c0.082-0.535,0.124-1.076,0.124-1.617V21.377C298.676,18.124,297.199,15.045,294.656,13.014
		z"/>
	<path style="fill:#4CAF50;" d="M501.334,458.71H288c-5.891,0-10.667-4.776-10.667-10.667c0-5.891,4.776-10.667,10.667-10.667
		h202.667V74.71H288c-5.891,0-10.667-4.776-10.667-10.667S282.109,53.377,288,53.377h213.333c5.891,0,10.667,4.776,10.667,10.667
		v384C512,453.935,507.225,458.71,501.334,458.71z"/>
</g>
<g>
	<path style="fill:#FAFAFA;" d="M202.667,352.044c-3.678,0-7.096-1.895-9.045-5.013L86.955,176.364
		c-3.279-4.894-1.969-11.52,2.925-14.799s11.52-1.969,14.799,2.925c0.129,0.192,0.251,0.388,0.367,0.588l106.667,170.667
		c3.11,5.003,1.576,11.58-3.427,14.691C206.599,351.484,204.653,352.041,202.667,352.044z"/>
	<path style="fill:#FAFAFA;" d="M96,352.044c-5.891-0.012-10.657-4.797-10.645-10.688c0.004-1.992,0.566-3.943,1.621-5.632
		l106.667-170.667c2.954-5.097,9.481-6.834,14.577-3.88c5.097,2.954,6.834,9.481,3.88,14.577c-0.116,0.2-0.238,0.396-0.367,0.588
		L105.067,347.009C103.119,350.142,99.69,352.047,96,352.044z"/>
</g>
<g>
	<path style="fill:#4CAF50;" d="M373.334,458.71c-5.891,0-10.667-4.776-10.667-10.667v-384c0-5.891,4.776-10.667,10.667-10.667
		c5.891,0,10.667,4.776,10.667,10.667v384C384,453.935,379.225,458.71,373.334,458.71z"/>
	<path style="fill:#4CAF50;" d="M501.334,394.71H288c-5.891,0-10.667-4.776-10.667-10.667c0-5.891,4.776-10.667,10.667-10.667
		h213.333c5.891,0,10.667,4.776,10.667,10.667C512,389.935,507.225,394.71,501.334,394.71z"/>
	<path style="fill:#4CAF50;" d="M501.334,330.71H288c-5.891,0-10.667-4.776-10.667-10.667c0-5.891,4.776-10.667,10.667-10.667
		h213.333c5.891,0,10.667,4.776,10.667,10.667C512,325.935,507.225,330.71,501.334,330.71z"/>
	<path style="fill:#4CAF50;" d="M501.334,266.71H288c-5.891,0-10.667-4.776-10.667-10.667c0-5.891,4.776-10.667,10.667-10.667
		h213.333c5.891,0,10.667,4.776,10.667,10.667C512,261.935,507.225,266.71,501.334,266.71z"/>
	<path style="fill:#4CAF50;" d="M501.334,202.71H288c-5.891,0-10.667-4.776-10.667-10.667s4.776-10.667,10.667-10.667h213.333
		c5.891,0,10.667,4.776,10.667,10.667S507.225,202.71,501.334,202.71z"/>
	<path style="fill:#4CAF50;" d="M501.334,138.71H288c-5.891,0-10.667-4.776-10.667-10.667c0-5.891,4.776-10.667,10.667-10.667
		h213.333c5.891,0,10.667,4.776,10.667,10.667C512,133.935,507.225,138.71,501.334,138.71z"/>
</g>
<g>
</g>
<g>
</g>
<g>
</g>
<g>
</g>
<g>
</g>
<g>
</g>
<g>
</g>
<g>
</g>
<g>
</g>
<g>
</g>
<g>
</g>
<g>
</g>
<g>
</g>
<g>
</g>
<g>
</g>
</symbol>

<symbol  id="msword"  x="0px" y="0px"
	 viewBox="0 0 512 512" style="enable-background:new 0 0 512 512;" xml:space="preserve">
<g>
	<path style="fill:#1565C0;" d="M294.656,13.014c-2.531-2.056-5.863-2.842-9.045-2.133l-277.333,64
		C3.397,76.003-0.047,80.369,0,85.377v362.667c0.002,5.263,3.843,9.739,9.045,10.539l277.333,42.667
		c5.823,0.895,11.269-3.099,12.164-8.921c0.082-0.535,0.124-1.076,0.124-1.617V21.377C298.676,18.124,297.199,15.045,294.656,13.014
		z"/>
	<path style="fill:#1565C0;" d="M501.334,458.71H288c-5.891,0-10.667-4.776-10.667-10.667c0-5.891,4.776-10.667,10.667-10.667
		h202.667V74.71H288c-5.891,0-10.667-4.776-10.667-10.667S282.109,53.377,288,53.377h213.333c5.891,0,10.667,4.776,10.667,10.667
		v384C512,453.935,507.225,458.71,501.334,458.71z"/>
</g>
<path style="fill:#FAFAFA;" d="M181.334,352.044c-4.753-0.005-8.928-3.155-10.24-7.723L138.667,230.87L106.24,344.321
	c-2.342,5.661-8.83,8.352-14.492,6.01c-2.722-1.126-4.884-3.288-6.01-6.01L43.072,194.988c-1.786-5.614,1.318-11.612,6.932-13.398
	c5.614-1.786,11.612,1.318,13.398,6.932c0.063,0.198,0.12,0.398,0.172,0.599L96,302.55L128.427,189.1
	c2.342-5.661,8.83-8.352,14.492-6.01c2.722,1.126,4.884,3.288,6.01,6.01l32.405,113.451l32.427-113.429
	c1.535-5.614,7.331-8.921,12.945-7.386c0.08,0.022,0.159,0.045,0.239,0.068c5.66,1.622,8.935,7.523,7.317,13.184l-42.667,149.333
	C190.281,348.897,186.094,352.048,181.334,352.044z"/>
<g>
	<path style="fill:#1565C0;" d="M458.667,138.71H288c-5.891,0-10.667-4.776-10.667-10.667c0-5.891,4.776-10.667,10.667-10.667
		h170.667c5.891,0,10.667,4.776,10.667,10.667C469.334,133.935,464.558,138.71,458.667,138.71z"/>
	<path style="fill:#1565C0;" d="M458.667,202.71H288c-5.891,0-10.667-4.776-10.667-10.667s4.776-10.667,10.667-10.667h170.667
		c5.891,0,10.667,4.776,10.667,10.667S464.558,202.71,458.667,202.71z"/>
	<path style="fill:#1565C0;" d="M458.667,266.71H288c-5.891,0-10.667-4.776-10.667-10.667c0-5.891,4.776-10.667,10.667-10.667
		h170.667c5.891,0,10.667,4.776,10.667,10.667C469.334,261.935,464.558,266.71,458.667,266.71z"/>
	<path style="fill:#1565C0;" d="M458.667,330.71H288c-5.891,0-10.667-4.776-10.667-10.667c0-5.891,4.776-10.667,10.667-10.667
		h170.667c5.891,0,10.667,4.776,10.667,10.667C469.334,325.935,464.558,330.71,458.667,330.71z"/>
	<path style="fill:#1565C0;" d="M458.667,394.71H288c-5.891,0-10.667-4.776-10.667-10.667c0-5.891,4.776-10.667,10.667-10.667
		h170.667c5.891,0,10.667,4.776,10.667,10.667C469.334,389.935,464.558,394.71,458.667,394.71z"/>
</g>
<g>
</g>
<g>
</g>
<g>
</g>
<g>
</g>
<g>
</g>
<g>
</g>
<g>
</g>
<g>
</g>
<g>
</g>
<g>
</g>
<g>
</g>
<g>
</g>
<g>
</g>
<g>
</g>
<g>
</g>
</symbol>

<symbol  id="file" viewBox="0 0 60 60" style="enable-background:new 0 0 60 60;" xml:space="preserve">
<g>
	<path d="M42.5,22h-25c-0.552,0-1,0.447-1,1s0.448,1,1,1h25c0.552,0,1-0.447,1-1S43.052,22,42.5,22z"/>
	<path d="M17.5,16h10c0.552,0,1-0.447,1-1s-0.448-1-1-1h-10c-0.552,0-1,0.447-1,1S16.948,16,17.5,16z"/>
	<path d="M42.5,30h-25c-0.552,0-1,0.447-1,1s0.448,1,1,1h25c0.552,0,1-0.447,1-1S43.052,30,42.5,30z"/>
	<path d="M42.5,38h-25c-0.552,0-1,0.447-1,1s0.448,1,1,1h25c0.552,0,1-0.447,1-1S43.052,38,42.5,38z"/>
	<path d="M42.5,46h-25c-0.552,0-1,0.447-1,1s0.448,1,1,1h25c0.552,0,1-0.447,1-1S43.052,46,42.5,46z"/>
	<path d="M38.914,0H6.5v60h47V14.586L38.914,0z M39.5,3.414L50.086,14H39.5V3.414z M8.5,58V2h29v14h14v42H8.5z"/>
</g>
<g>
</g>
<g>
</g>
<g>
</g>
<g>
</g>
<g>
</g>
<g>
</g>
<g>
</g>
<g>
</g>
<g>
</g>
<g>
</g>
<g>
</g>
<g>
</g>
<g>
</g>
<g>
</g>
<g>
</g>
</symbol>

<symbol id="image" height="445pt" viewBox="0 -47 445.97 445" width="445pt" ><path d="m445.96875 269.144531v41.339844c0 22.09375-17.90625 40-40 40h-365.96875c-22.089844 0-40-17.90625-40-40v-27.308594l85.238281-56.769531c13.441407-8.84375 30.871094-8.777344 44.242188.167969l50.917969 34.070312c17.808593 11.921875 41.847656 7.6875 54.511718-9.597656l68.109375-92.980469c7.609375-10.386718 19.75-16.476562 32.621094-16.363281 12.875.113281 24.90625 6.414063 32.328125 16.933594zm0 0" fill="#00acea"/><path d="m445.96875 40.484375v228.660156l-78-110.507812c-7.421875-10.519531-19.453125-16.820313-32.328125-16.933594-12.871094-.113281-25.011719 5.976563-32.621094 16.363281l-68.109375 92.980469c-12.664062 17.285156-36.703125 21.519531-54.511718 9.597656l-50.917969-34.070312c-13.371094-8.945313-30.800781-9.011719-44.242188-.167969l-85.238281 56.769531v-242.691406c0-22.089844 17.910156-40 40-40h365.96875c22.09375 0 40 17.910156 40 40zm0 0" fill="#00efd1"/><path d="m176.960938 56.484375c31.871093-.003906 57.707031 25.832031 57.710937 57.703125 0 31.871094-25.835937 57.707031-57.707031 57.707031s-57.707032-25.839843-57.703125-57.710937c0-31.867188 25.832031-57.699219 57.699219-57.699219zm0 0" fill="#fedb41"/></symbol>

<symbol id="mspowerpoint"
	 viewBox="0 0 512 512" style="enable-background:new 0 0 512 512;" xml:space="preserve">
<path style="fill:#ECEFF1;" d="M496,80.011H272c-8.832,0-16,7.168-16,16v320c0,8.832,7.168,16,16,16h224c8.832,0,16-7.168,16-16
	v-320C512,87.179,504.832,80.011,496,80.011z"/>
<g>
	<path style="fill:#F57C00;" d="M432,368.011H272c-8.832,0-16-7.168-16-16s7.168-16,16-16h160c8.832,0,16,7.168,16,16
		S440.832,368.011,432,368.011z"/>
	<path style="fill:#F57C00;" d="M352,144.011c-44.192,0-80,35.808-80,80s35.808,80,80,80s80-35.808,80-80h-80V144.011z"/>
	<path style="fill:#F57C00;" d="M384,112.011v80h80C464,147.819,428.192,112.011,384,112.011z"/>
</g>
<path style="fill:#EF6C00;" d="M282.208,19.691c-3.648-3.04-8.544-4.352-13.152-3.392l-256,48C5.472,65.707,0,72.299,0,80.011v352
	c0,7.68,5.472,14.304,13.056,15.712l256,48c0.96,0.192,1.952,0.288,2.944,0.288c3.712,0,7.328-1.28,10.208-3.68
	c3.68-3.04,5.792-7.584,5.792-12.32v-448C288,27.243,285.888,22.731,282.208,19.691z"/>
<path style="fill:#FAFAFA;" d="M112,368.011c-8.832,0-16-7.168-16-16v-160c0-8.832,7.168-16,16-16h48c35.296,0,64,28.704,64,64
	s-28.704,64-64,64h-32v48C128,360.843,120.832,368.011,112,368.011z M128,272.011h32c17.632,0,32-14.368,32-32s-14.368-32-32-32h-32
	V272.011z"/>
<g>
</g>
<g>
</g>
<g>
</g>
<g>
</g>
<g>
</g>
<g>
</g>
<g>
</g>
<g>
</g>
<g>
</g>
<g>
</g>
<g>
</g>
<g>
</g>
<g>
</g>
<g>
</g>
<g>
</g>
</symbol>


<symbol  id="pdf"  x="0px" y="0px"
	 viewBox="0 0 512 512" style="enable-background:new 0 0 512 512;" xml:space="preserve">
<path style="fill:#E2E5E7;" d="M128,0c-17.6,0-32,14.4-32,32v448c0,17.6,14.4,32,32,32h320c17.6,0,32-14.4,32-32V128L352,0H128z"/>
<path style="fill:#B0B7BD;" d="M384,128h96L352,0v96C352,113.6,366.4,128,384,128z"/>
<polygon style="fill:#CAD1D8;" points="480,224 384,128 480,128 "/>
<path style="fill:#F15642;" d="M416,416c0,8.8-7.2,16-16,16H48c-8.8,0-16-7.2-16-16V256c0-8.8,7.2-16,16-16h352c8.8,0,16,7.2,16,16
	V416z"/>
<g>
	<path style="fill:#FFFFFF;" d="M101.744,303.152c0-4.224,3.328-8.832,8.688-8.832h29.552c16.64,0,31.616,11.136,31.616,32.48
		c0,20.224-14.976,31.488-31.616,31.488h-21.36v16.896c0,5.632-3.584,8.816-8.192,8.816c-4.224,0-8.688-3.184-8.688-8.816V303.152z
		 M118.624,310.432v31.872h21.36c8.576,0,15.36-7.568,15.36-15.504c0-8.944-6.784-16.368-15.36-16.368H118.624z"/>
	<path style="fill:#FFFFFF;" d="M196.656,384c-4.224,0-8.832-2.304-8.832-7.92v-72.672c0-4.592,4.608-7.936,8.832-7.936h29.296
		c58.464,0,57.184,88.528,1.152,88.528H196.656z M204.72,311.088V368.4h21.232c34.544,0,36.08-57.312,0-57.312H204.72z"/>
	<path style="fill:#FFFFFF;" d="M303.872,312.112v20.336h32.624c4.608,0,9.216,4.608,9.216,9.072c0,4.224-4.608,7.68-9.216,7.68
		h-32.624v26.864c0,4.48-3.184,7.92-7.664,7.92c-5.632,0-9.072-3.44-9.072-7.92v-72.672c0-4.592,3.456-7.936,9.072-7.936h44.912
		c5.632,0,8.96,3.344,8.96,7.936c0,4.096-3.328,8.704-8.96,8.704h-37.248V312.112z"/>
</g>
<path style="fill:#CAD1D8;" d="M400,432H96v16h304c8.8,0,16-7.2,16-16v-16C416,424.8,408.8,432,400,432z"/>
</symbol>


<symbol id="pdf-2"  x="0px" y="0px"
	 viewBox="0 0 309.267 309.267" style="enable-background:new 0 0 309.267 309.267;" xml:space="preserve">
<g>
	<path style="fill:#E2574C;" d="M38.658,0h164.23l87.049,86.711v203.227c0,10.679-8.659,19.329-19.329,19.329H38.658
		c-10.67,0-19.329-8.65-19.329-19.329V19.329C19.329,8.65,27.989,0,38.658,0z"/>
	<path style="fill:#B53629;" d="M289.658,86.981h-67.372c-10.67,0-19.329-8.659-19.329-19.329V0.193L289.658,86.981z"/>
	<path style="fill:#FFFFFF;" d="M217.434,146.544c3.238,0,4.823-2.822,4.823-5.557c0-2.832-1.653-5.567-4.823-5.567h-18.44
		c-3.605,0-5.615,2.986-5.615,6.282v45.317c0,4.04,2.3,6.282,5.412,6.282c3.093,0,5.403-2.242,5.403-6.282v-12.438h11.153
		c3.46,0,5.19-2.832,5.19-5.644c0-2.754-1.73-5.49-5.19-5.49h-11.153v-16.903C204.194,146.544,217.434,146.544,217.434,146.544z
		 M155.107,135.42h-13.492c-3.663,0-6.263,2.513-6.263,6.243v45.395c0,4.629,3.74,6.079,6.417,6.079h14.159
		c16.758,0,27.824-11.027,27.824-28.047C183.743,147.095,173.325,135.42,155.107,135.42z M155.755,181.946h-8.225v-35.334h7.413
		c11.221,0,16.101,7.529,16.101,17.918C171.044,174.253,166.25,181.946,155.755,181.946z M106.33,135.42H92.964
		c-3.779,0-5.886,2.493-5.886,6.282v45.317c0,4.04,2.416,6.282,5.663,6.282s5.663-2.242,5.663-6.282v-13.231h8.379
		c10.341,0,18.875-7.326,18.875-19.107C125.659,143.152,117.425,135.42,106.33,135.42z M106.108,163.158h-7.703v-17.097h7.703
		c4.755,0,7.78,3.711,7.78,8.553C113.878,159.447,110.863,163.158,106.108,163.158z"/>
</g>
</symbol>

<symbol id="dots" viewBox="0 0 24 24" stroke="currentColor">
  <path stroke-linecap="round" stroke-linejoin="round" stroke-width="2" d="M5 12h.01M12 12h.01M19 12h.01M6 12a1 1 0 11-2 0 1 1 0 012 0zm7 0a1 1 0 11-2 0 1 1 0 012 0zm7 0a1 1 0 11-2 0 1 1 0 012 0z" />
</symbol>

<symbol id="arrow_down" viewBox="0 0 490.688 490.688" >
<path  d="M472.328,120.529L245.213,347.665L18.098,120.529c-4.237-4.093-10.99-3.975-15.083,0.262
	c-3.992,4.134-3.992,10.687,0,14.82l234.667,234.667c4.165,4.164,10.917,4.164,15.083,0l234.667-234.667
	c4.237-4.093,4.354-10.845,0.262-15.083c-4.093-4.237-10.845-4.354-15.083-0.262c-0.089,0.086-0.176,0.173-0.262,0.262
	L472.328,120.529z"/>
<path d="M245.213,373.415c-2.831,0.005-5.548-1.115-7.552-3.115L2.994,135.633c-4.093-4.237-3.975-10.99,0.262-15.083
	c4.134-3.992,10.687-3.992,14.82,0l227.136,227.115l227.115-227.136c4.093-4.237,10.845-4.354,15.083-0.262
	c4.237,4.093,4.354,10.845,0.262,15.083c-0.086,0.089-0.173,0.176-0.262,0.262L252.744,370.279
	C250.748,372.281,248.039,373.408,245.213,373.415z"/>
</symbol>

<symbol id="plus" viewBox="0 0 512 512" >
	<path d="M492,236H276V20c0-11.046-8.954-20-20-20c-11.046,0-20,8.954-20,20v216H20c-11.046,0-20,8.954-20,20s8.954,20,20,20h216
		v216c0,11.046,8.954,20,20,20s20-8.954,20-20V276h216c11.046,0,20-8.954,20-20C512,244.954,503.046,236,492,236z"/>
</symbol>

<symbol  id="folder" viewBox="0 0 408 408" >
<g>
	<g>
		<path d="M372,88.661H206.32l-33-39.24c-0.985-1.184-2.461-1.848-4-1.8H36c-19.956,0.198-36.023,16.443-36,36.4v240
			c-0.001,19.941,16.06,36.163,36,36.36h336c19.94-0.197,36.001-16.419,36-36.36v-199C408.001,105.08,391.94,88.859,372,88.661z"/>
	</g>
</g>
</symbol>

<symbol id="download" viewBox="0 0 20 20">
    <path fillRule="evenodd" d="M3 17a1 1 0 011-1h12a1 1 0 110 2H4a1 1 0 01-1-1zm3.293-7.707a1 1 0 011.414 0L9 10.586V3a1 1 0 112 0v7.586l1.293-1.293a1 1 0 111.414 1.414l-3 3a1 1 0 01-1.414 0l-3-3a1 1 0 010-1.414z" clipRule="evenodd" />
</symbol>

</svg>